# xmcd
#
# Track frame offsets: 
#        150
#        18463
#        36618
#        55880
#        73815
#        94630
#        108950
#        117175
#        133210
#        150215
#        186349
#        198327
#        216177
#        233359
#        244787
#        259929
#        275661
#        293183
#        313115
#        321079
#
# Disc length: 4467 seconds
#
# Revision: 2
# Processed by: cddbd v1.5.2PL0 Copyright (c) Steve Scherf et al.
# Submitted via: ExactAudioCopy v0.99pb5
#
DISCID=2a117114
DTITLE=JANIS JOPLIN - THE COLLECTOR´S SERIES
DYEAR=2001
DGENRE=
TTITLE0=Summertime
TTITLE1=Cry Baby
TTITLE2=Piece Of Me Heart
TTITLE3=Try
TTITLE4=Me And Bobby McGee
TTITLE5=Down On Me
TTITLE6=Mercedes Benz
TTITLE7=A Woman Left Lonely
TTITLE8=Move Over
TTITLE9=Ball And Chain
TTITLE10=Bye, Bye Baby
TTITLE11=Half Moon
TTITLE12=My Baby
TTITLE13=Burred Alive In The Blues
TTITLE14=Trust Me
TTITLE15=Get It While You Can
TTITLE16=Little Girl Blues
TTITLE17=Time
TTITLE18=My Own Tears
TTITLE19=Come Back
EXTD=
EXTT0=
EXTT1=
EXTT2=
EXTT3=
EXTT4=
EXTT5=
EXTT6=
EXTT7=
EXTT8=
EXTT9=
EXTT10=
EXTT11=
EXTT12=
EXTT13=
EXTT14=
EXTT15=
EXTT16=
EXTT17=
EXTT18=
EXTT19=
PLAYORDER=
